<svg id="_28" data-name="28" xmlns="http://www.w3.org/2000/svg" viewBox="0 0 317.26 84.52"><defs><style>.cls-1,.cls-2,.cls-5{fill:#fff;}.cls-1{fill-rule:evenodd;}.cls-2{font-size:48px;}.cls-2,.cls-5{font-family:Roboto-Bold, Roboto;font-weight:700;}.cls-3{letter-spacing:-0.01em;}.cls-4{letter-spacing:-0.02em;}.cls-5{font-size:14px;}</style></defs><path class="cls-1" d="M-243.39,298.63c-6.11,16.83-22.72,28.89-42.24,28.89-24.72,0-44.76-19.33-44.76-43.19,0-19.49,13.38-36,31.76-41.33-14.52,6.45-24.6,20.61-24.6,37,0,22.51,18.92,40.76,42.24,40.76a42.43,42.43,0,0,0,37.6-22.17Z" transform="translate(330.39 -243)"/><path class="cls-1" d="M-163.81,309.49l-50.57,2,50.57,2Zm91,0,50.58,2-50.58,2Z" transform="translate(330.39 -243)"/><polygon class="cls-1" points="67.56 41 46.48 20.6 25.34 29.4 13.13 64.31 22.25 73.12 58.56 61.46 67.56 41"/><polygon class="cls-1" points="54.45 7.14 81.56 33.31 72.44 36.29 51.3 15.82 54.45 7.14"/><path class="cls-1" d="M-307,311.34l-1.09-1.11,18.7-18a6.43,6.43,0,0,0,7.26-1.17,6,6,0,0,0,0-8.81,6.79,6.79,0,0,0-9.13,0,6.37,6.37,0,0,0-1.15,7.13l-18.7,17.92-1.16-1.05,10.67-30.88,16.77-6.88,17,16.49L-275,301.05Z" transform="translate(330.39 -243)"/><text class="cls-2" transform="translate(108.39 56)"><tspan class="cls-3">P</tspan><tspan x="30.66" y="0">enP</tspan><tspan class="cls-4" x="114.45" y="0">r</tspan><tspan x="131.11" y="0">ose</tspan></text><text class="cls-5" transform="translate(196.39 73.53)">Blog</text></svg>